<?xml version="1.0" encoding="UTF-8" standalone="no"?>
<svg width="571px" height="622px" viewBox="0 0 571 622" version="1.1" xmlns="http://www.w3.org/2000/svg" xmlns:xlink="http://www.w3.org/1999/xlink">
    <!-- Generator: Sketch 3.7.2 (28276) - http://www.bohemiancoding.com/sketch -->
    <title>search</title>
    <desc>Created with Sketch.</desc>
    <defs></defs>
    <g id="Page-1" stroke="none" stroke-width="1" fill="none" fill-rule="evenodd">
        <g id="search" fill="#232323">
            <g id="Layer_1">
                <path d="M488.4,481.9 C539,431.3 570.8,361.5 570.8,282.4 C570.8,203.3 539,133.4 488.4,82.9 C437.8,32.3 365,0.5 285.6,0.5 C206.2,0.5 136.6,32.3 82.8,82.9 C32.2,133.5 0.4,203.3 0.4,282.4 C0.4,361.5 32.2,431.4 82.8,481.9 C133.4,532.4 206.2,564.3 285.6,564.3 C336.2,564.3 383.7,551.5 425,526.2 L523.1,621.3 L567.4,577 L478.8,488.4 C482.2,484.9 485.4,484.9 488.4,481.9 L488.4,481.9 Z M130.4,434.4 C89.4,393.4 67.1,339.3 67.1,279.2 C67.1,219.1 92.4,165 130.4,124 C171.4,83 225.5,60.7 288.9,60.7 C349,60.7 406.1,86 447.4,124 C488.4,165 510.7,219.1 510.7,279.2 C510.7,339.3 485.4,393.4 447.4,434.4 C406.4,475.4 352.3,497.7 288.9,497.7 C225.6,500.9 168.5,475.4 130.4,434.4 L130.4,434.4 Z" id="Shape"></path>
            </g>
        </g>
    </g>
</svg>
